<svg display="none" version="1.1" xmlns="http://www.w3.org/2000/svg" xmlns:xlink="http://www.w3.org/1999/xlink">
<defs>

<!-- Yes -->
<symbol id="check-mark-icon" viewBox="0 0 512 512">
  <title>yes</title>
  <path class="path1" d="M462,256c0,113.771-92.229,206-206,206S50,369.771,50,256S142.229,50,256,50S462,142.229,462,256z  	 M422,256c0-91.755-74.258-166-166-166c-91.755,0-166,74.259-166,166c0,91.755,74.258,166,166,166C347.755,422,422,347.741,422,256z  	 M338.224,167.637L222.108,283.753l-50.296-50.31l-37.296,37.303l87.593,87.617l153.428-153.438L338.224,167.637z"/>
</symbol>

<!-- No -->
<symbol id="ex-mark-icon" viewBox="0 0 512 512">
  <title>no</title>
  <path class="path1" d="M462,256c0,113.771-92.229,206-206,206S50,369.771,50,256S142.229,50,256,50S462,142.229,462,256z	 M422,256c0-91.755-74.258-166-166-166c-91.755,0-166,74.259-166,166c0,91.755,74.258,166,166,166C347.755,422,422,347.741,422,256z	 M325.329,362.49l-67.327-67.324l-67.329,67.332l-36.164-36.186l67.314-67.322l-67.321-67.317l36.185-36.164l67.31,67.301 l67.3-67.309l36.193,36.17l-67.312,67.315l67.32,67.31L325.329,362.49z"/>
</symbol>

<!-- Dollar dollar bills yall -->
<symbol id="dollar-icon" viewBox="0 0 512 512">
  <title>dollar bill</title>
  <path class="path1" d="M245.928,201.576c-26.987-13.494-24.12-42.729,15.911-44.978  	c32.402-1.821,66.144,10.462,86.789,17.485c0,0,12.925-56.687,15.918-69.75c-29.897-9.35-55.788-14.038-81.168-15.781V50h-59.225  	v42.012c-65.233,14.239-91.493,62.386-91.493,97.42c0,84.558,101.107,98.352,130.492,111.545  	c34.783,14.993,27.338,41.527-2.221,47.978c-33.792,7.374-79.485-7.985-110.803-20.204l-19.595,68.252  	c27.656,15.242,65.194,25.543,93.62,27.977V462h59.225v-41.391c53.217-7.485,98.167-40.343,98.088-98.042  	C381.466,247.904,301.289,226.614,245.928,201.576z"/>
</symbol>









<path id="currency-dollar-icon" d=""/>

</defs>
</svg>
